<svg
  xmlns:svg="http://www.w3.org/2000/svg"
  xmlns="http://www.w3.org/2000/svg"
  version="1.1"
  viewBox="0 0 60 60"
  height="60"
  width="60"
>
  <g>
    <path
      d="m 55.209535,29.738475 -3.0972,17.533 A 11.293828,11.293828 0 0 1 36.306076,55.61686 79.426889,79.426889 0 0 1 5.307286,29.963315 79.443893,79.443893 0 0 1 43.217878,16.489705 11.293828,11.293828 0 0 1 55.209535,29.738475"
      style="opacity:0.4;fill:#33b3e7"
    />
    <path
      d="m 48.905825,22.0585 v 15.883 a 10.077,10.077 0 0 1 -12.592999,9.781 70.869,70.869 0 0 1 -31.219,-17.722 70.884,70.884 0 0 1 31.219,-17.723 10.077,10.077 0 0 1 12.592999,9.781"
      style="fill:#0088db"
    />
  </g>
</svg>
