<svg id="healthcare" xmlns="http://www.w3.org/2000/svg" width="60.294" height="54.192" viewBox="0 0 60.294 54.192">
  <path id="Path_90" data-name="Path 90" d="M1.178,306.885H11.305a1.178,1.178,0,0,0,1.178-1.178v-1.151a25.137,25.137,0,0,1,8.984,2.244A26.777,26.777,0,0,0,32.5,309.24c2.169,0,5.388-.729,9.567-2.168a1.178,1.178,0,1,0-.766-2.227c-3.933,1.353-6.894,2.039-8.8,2.039a24.478,24.478,0,0,1-10.161-2.271,27.347,27.347,0,0,0-9.858-2.414V290.235a14.511,14.511,0,0,0,2.3-.9c2.321-1.059,4.952-2.26,8.559-.232l5.685,3.2a3.538,3.538,0,0,0,1.733.454H38.39a2.355,2.355,0,0,1,.85,4.551,2.319,2.319,0,0,1-.85.159H26.419a1.178,1.178,0,1,0,0,2.355H38.39a4.661,4.661,0,0,0,1.659-.3l.028-.009,14.654-5.417a2.356,2.356,0,0,1,1.862,4.325c-.2.1-.4.2-.793.381l-.341-.681a1.178,1.178,0,0,0-2.107,1.053l.313.626c-.771.354-1.647.749-2.605,1.171a1.178,1.178,0,0,0,.949,2.156c2.317-1.02,3.85-1.743,5.59-2.575a4.711,4.711,0,0,0-3.711-8.654L43.031,295.9a4.636,4.636,0,0,0,.07-.8,4.716,4.716,0,0,0-4.71-4.71H30.764a1.178,1.178,0,0,1-.578-.151l-5.685-3.2c-4.65-2.615-8.142-1.021-10.691.142a7.318,7.318,0,0,1-2.5.853H1.178A1.178,1.178,0,0,0,0,289.221v16.486a1.178,1.178,0,0,0,1.178,1.178ZM2.355,290.4h7.772V304.53H2.355Z" transform="translate(0 -255.048)" fill="#1e1c1d"/>
  <path id="Path_91" data-name="Path 91" d="M203.053,56.351a1.178,1.178,0,0,0,1.295,0c17.274-11.365,17.843-19.775,16.645-23.776a9.613,9.613,0,0,0-9.051-6.671,10.889,10.889,0,0,0-8.241,3.943,10.888,10.888,0,0,0-8.24-3.943,9.616,9.616,0,0,0-9.047,6.682C185.216,36.585,185.785,44.99,203.053,56.351ZM188.669,33.263a7.309,7.309,0,0,1,6.791-5,8.893,8.893,0,0,1,7.225,4.153,1.178,1.178,0,0,0,2.031,0c.024-.042,2.482-4.15,7.224-4.15a7.307,7.307,0,0,1,6.795,4.991c.8,2.68.91,10.017-15.036,20.7C187.76,43.272,187.867,35.941,188.669,33.263Z" transform="translate(-164.118 -25.905)" fill="#1e1c1d"/>
  <path id="Path_92" data-name="Path 92" d="M287.178,113.161h3.533v3.533a1.178,1.178,0,1,0,2.355,0v-3.533H296.6a1.178,1.178,0,0,0,0-2.355h-3.533v-3.533a1.178,1.178,0,0,0-2.355,0v3.533h-3.533a1.178,1.178,0,1,0,0,2.355Z" transform="translate(-252.32 -96.652)" fill="#1e1c1d"/>
  <ellipse id="Ellipse_25" data-name="Ellipse 25" cx="1.178" cy="1.178" rx="1.178" ry="1.178" transform="translate(45.456 47.833)" fill="#1e1c1d"/>
</svg>
