<svg id="charity_1_" data-name="charity (1)" xmlns="http://www.w3.org/2000/svg" width="72.39" height="75.176" viewBox="0 0 72.39 75.176">
  <g id="Group_136" data-name="Group 136" transform="translate(16.496 0)">
    <g id="Group_135" data-name="Group 135" transform="translate(0 0)">
      <path id="Path_82" data-name="Path 82" d="M177.08,11.953,167.447.727c-.018-.021-.037-.042-.057-.062a2.291,2.291,0,0,0-3.105-.114l-7.676,6.628a2.253,2.253,0,0,0-.233,3.178l.3.348-.5.428a5.678,5.678,0,0,1-5.289.908c-.041-.011-5.725-1.625-5.767-1.634a8.275,8.275,0,0,0-6.277,1.031c-.041.024-14.711,8.42-14.75,8.446-1.339.872-3.2,3.053-1.7,5.693l.018.031a3.778,3.778,0,0,0,2.658,1.85,3.982,3.982,0,0,0,6.988,2.445l5.437-6.282a3.958,3.958,0,0,0,.554-.833l.224-.093a3.706,3.706,0,0,0,2.732,2.657c6.822,1.935,8.242,2.5,10.152,2.284,5.325-.571,6.545-.745,9.227-2.289a42.3,42.3,0,0,0,5.594-3.864l.327.379a2.253,2.253,0,0,0,3.178.233l7.307-6.309A2.725,2.725,0,0,0,177.08,11.953ZM130.4,28.459a1.779,1.779,0,0,1-3.12-1.222l6.507-2.692Zm28.891-5.023c-2.282,1.313-3.05,1.438-8.34,2.005-1.449.155-2.584-.295-9.339-2.21a1.482,1.482,0,0,1-1.186-1.035,2.09,2.09,0,0,1-.047-.873c0-.005,0-.01,0-.015s0-.019.007-.028a1.686,1.686,0,0,1,.259-.553.928.928,0,0,1,1-.355c2.084.287,7.046.95,7.1.957a1.1,1.1,0,0,0,.292-2.183c-.05-.007-5.008-.67-7.088-.956a3.2,3.2,0,0,0-3.546,2.07l-1.606.662c-12.678,5.228-9.82,4.093-10.761,4.364-1.771.249-2.985-2.056-.758-3.542l14.691-8.41,0,0,.053-.032a6.044,6.044,0,0,1,4.579-.755l5.689,1.614a7.863,7.863,0,0,0,7.33-1.36l.5-.428,6.426,7.442A40.083,40.083,0,0,1,159.288,23.436Zm16.065-9.32c-.023.02-7.313,6.325-7.343,6.321S157.982,8.9,158.048,8.847l7.676-6.628h0a.08.08,0,0,1,.095-.007l9.589,11.176A.518.518,0,0,1,175.353,14.116Z" transform="translate(-121.84 0)" fill="#fff"/>
    </g>
  </g>
  <g id="Group_138" data-name="Group 138" transform="translate(0 43.95)">
    <g id="Group_137" data-name="Group 137">
      <path id="Path_83" data-name="Path 83" d="M62.36,303.149a3.987,3.987,0,0,0-6.988-2.445l-5.437,6.282a3.945,3.945,0,0,0-.553.833l-.224.093a3.706,3.706,0,0,0-2.732-2.657c-7.221-2.048-8.163-2.459-10.13-2.286l-.021,0c-5.325.571-6.545.745-9.227,2.289a42.273,42.273,0,0,0-5.594,3.865l-.327-.379a2.256,2.256,0,0,0-3.178-.233l-7.7,6.652a2.18,2.18,0,0,0-.214,3.089l10.154,11.572a2.121,2.121,0,0,0,2.946.245l.02-.017,7.676-6.628a2.252,2.252,0,0,0,.233-3.178l-.3-.348.5-.427a5.679,5.679,0,0,1,5.289-.908l5.107,1.449a1.1,1.1,0,1,0,.6-2.119l-5.107-1.449a7.863,7.863,0,0,0-7.33,1.359l-.5.427-6.425-7.441a40.067,40.067,0,0,1,5.253-3.623c2.283-1.314,3.05-1.438,8.352-2.006,1.239-.108,2.014.115,6.263,1.336,3.292.946,3.972.95,4.25,1.91a2.089,2.089,0,0,1,.047.873,1.636,1.636,0,0,1-.268.6.929.929,0,0,1-1,.355c-2.084-.287-7.047-.95-7.1-.957a1.1,1.1,0,0,0-.292,2.183c.05.007,5.008.67,7.088.956a3.2,3.2,0,0,0,3.546-2.07c.055-.023,11.091-4.571,11.144-4.6,1.163-.591,2.262-.726,2.955.387.8,1.425-.617,2.488-.973,2.726l-14.691,8.409-.02.011-.036.022a5.6,5.6,0,0,1-.771.419,1.1,1.1,0,0,0,.9,2.011,7.8,7.8,0,0,0,1.049-.568c.044-.025,14.707-8.417,14.749-8.445C67.331,308.122,65.409,303.637,62.36,303.149ZM29.392,321.688a.046.046,0,0,1,.012.037c0,.032-7.589,6.572-7.613,6.593L11.7,316.818l7.688-6.638a.047.047,0,0,1,.036-.012.046.046,0,0,1,.035.017ZM53.651,306.06l3.387-3.914a1.779,1.779,0,0,1,3.12,1.222Z" transform="translate(-9.488 -299.328)" fill="#fff"/>
    </g>
  </g>
  <g id="Group_140" data-name="Group 140" transform="translate(27.326 30.514)">
    <g id="Group_139" data-name="Group 139">
      <path id="Path_84" data-name="Path 84" d="M203.314,211.53a1.839,1.839,0,0,0,1.533.833,1.8,1.8,0,0,0,1.444-.849,2.943,2.943,0,0,1,5.272.309,1.1,1.1,0,0,0,2.026-.865,5.141,5.141,0,0,0-8.786-1.154,5.158,5.158,0,0,0-9.2,3.185c.005,5.1,4.423,9,8.556,10.955a1.537,1.537,0,0,0,1.313,0c2.971-1.41,6.13-3.911,7.592-6.932a1.1,1.1,0,1,0-1.983-.96c-1.191,2.461-3.829,4.533-6.27,5.762-3.437-1.7-7-4.863-7.006-8.826A2.951,2.951,0,0,1,203.314,211.53Z" transform="translate(-195.599 -207.822)" fill="#fff"/>
    </g>
  </g>
</svg>
