<svg id="charity_2_" data-name="charity (2)" xmlns="http://www.w3.org/2000/svg" width="67.956" height="82.269" viewBox="0 0 67.956 82.269">
  <g id="Group_136" data-name="Group 136" transform="translate(12.063 0)">
    <g id="Group_135" data-name="Group 135" transform="translate(0 0)">
      <path id="Path_82" data-name="Path 82" d="M177.08,11.953,167.447.727c-.018-.021-.037-.042-.057-.062a2.291,2.291,0,0,0-3.105-.114l-7.676,6.628a2.253,2.253,0,0,0-.233,3.178l.3.348-.5.428a5.678,5.678,0,0,1-5.289.908c-.041-.011-5.725-1.625-5.767-1.634a8.275,8.275,0,0,0-6.277,1.031c-.041.024-14.711,8.42-14.75,8.446-1.339.872-3.2,3.053-1.7,5.693l.018.031a3.778,3.778,0,0,0,2.658,1.85,3.982,3.982,0,0,0,6.988,2.445l5.437-6.282a3.958,3.958,0,0,0,.554-.833l.224-.093a3.706,3.706,0,0,0,2.732,2.657c6.822,1.935,8.242,2.5,10.152,2.284,5.325-.571,6.545-.745,9.227-2.289a42.3,42.3,0,0,0,5.594-3.864l.327.379a2.253,2.253,0,0,0,3.178.233l7.307-6.309A2.725,2.725,0,0,0,177.08,11.953ZM130.4,28.459a1.779,1.779,0,0,1-3.12-1.222l6.507-2.692Zm28.891-5.023c-2.282,1.313-3.05,1.438-8.34,2.005-1.449.155-2.584-.295-9.339-2.21a1.482,1.482,0,0,1-1.186-1.035,2.09,2.09,0,0,1-.047-.873c0-.005,0-.01,0-.015s0-.019.007-.028a1.686,1.686,0,0,1,.259-.553.928.928,0,0,1,1-.355c2.084.287,7.046.95,7.1.957a1.1,1.1,0,0,0,.292-2.183c-.05-.007-5.008-.67-7.088-.956a3.2,3.2,0,0,0-3.546,2.07l-1.606.662c-12.678,5.228-9.82,4.093-10.761,4.364-1.771.249-2.985-2.056-.758-3.542l14.691-8.41,0,0,.053-.032a6.044,6.044,0,0,1,4.579-.755l5.689,1.614a7.863,7.863,0,0,0,7.33-1.36l.5-.428,6.426,7.442A40.083,40.083,0,0,1,159.288,23.436Zm16.065-9.32c-.023.02-7.313,6.325-7.343,6.321S157.982,8.9,158.048,8.847l7.676-6.628h0a.08.08,0,0,1,.095-.007l9.589,11.176A.518.518,0,0,1,175.353,14.116Z" transform="translate(-121.84 0)" fill="#1e1c1d"/>
    </g>
  </g>
  <g id="Group_138" data-name="Group 138" transform="translate(0 51.043)">
    <g id="Group_137" data-name="Group 137">
      <path id="Path_83" data-name="Path 83" d="M62.36,303.149a3.987,3.987,0,0,0-6.988-2.445l-5.437,6.282a3.945,3.945,0,0,0-.553.833l-.224.093a3.706,3.706,0,0,0-2.732-2.657c-7.221-2.048-8.163-2.459-10.13-2.286l-.021,0c-5.325.571-6.545.745-9.227,2.289a42.273,42.273,0,0,0-5.594,3.865l-.327-.379a2.256,2.256,0,0,0-3.178-.233l-7.7,6.652a2.18,2.18,0,0,0-.214,3.089l10.154,11.572a2.121,2.121,0,0,0,2.946.245l.02-.017,7.676-6.628a2.252,2.252,0,0,0,.233-3.178l-.3-.348.5-.427a5.679,5.679,0,0,1,5.289-.908l5.107,1.449a1.1,1.1,0,1,0,.6-2.119l-5.107-1.449a7.863,7.863,0,0,0-7.33,1.359l-.5.427-6.425-7.441a40.067,40.067,0,0,1,5.253-3.623c2.283-1.314,3.05-1.438,8.352-2.006,1.239-.108,2.014.115,6.263,1.336,3.292.946,3.972.95,4.25,1.91a2.089,2.089,0,0,1,.047.873,1.636,1.636,0,0,1-.268.6.929.929,0,0,1-1,.355c-2.084-.287-7.047-.95-7.1-.957a1.1,1.1,0,0,0-.292,2.183c.05.007,5.008.67,7.088.956a3.2,3.2,0,0,0,3.546-2.07c.055-.023,11.091-4.571,11.144-4.6,1.163-.591,2.262-.726,2.955.387.8,1.425-.617,2.488-.973,2.726l-14.691,8.409-.02.011-.036.022a5.6,5.6,0,0,1-.771.419,1.1,1.1,0,0,0,.9,2.011,7.8,7.8,0,0,0,1.049-.568c.044-.025,14.707-8.417,14.749-8.445C67.331,308.122,65.409,303.637,62.36,303.149ZM29.392,321.688a.046.046,0,0,1,.012.037c0,.032-7.589,6.572-7.613,6.593L11.7,316.818l7.688-6.638a.047.047,0,0,1,.036-.012.046.046,0,0,1,.035.017ZM53.651,306.06l3.387-3.914a1.779,1.779,0,0,1,3.12,1.222Z" transform="translate(-9.488 -299.328)" fill="#1e1c1d"/>
    </g>
  </g>
  <g id="search-of-knowledge" transform="translate(25.291 31.548)">
    <path id="Path_85" data-name="Path 85" d="M205.064,123.938a3.626,3.626,0,1,0,3.626,3.626A3.631,3.631,0,0,0,205.064,123.938Zm0,6.481a2.855,2.855,0,1,1,2.855-2.855A2.858,2.858,0,0,1,205.064,130.419Zm0,0" transform="translate(-193.686 -119.157)" fill="#1e1c1d"/>
    <path id="Path_86" data-name="Path 86" d="M19.843,14.692,16.5,11.348a5.467,5.467,0,0,0-.1-6.037V.386A.386.386,0,0,0,16.009,0H2.274A1.777,1.777,0,0,0,.5,1.775v16.2a1.777,1.777,0,0,0,1.775,1.775H16.009a.386.386,0,0,0,.386-.386V15.192l1.475,1.475a1.4,1.4,0,0,0,1.974-1.974Zm-2.938-1.847-.883.883-.9-.9a5.522,5.522,0,0,0,.916-.849Zm-5.027.269a4.707,4.707,0,1,1,4.707-4.707A4.712,4.712,0,0,1,11.878,13.115ZM2.274.772h.309V16.2H2.274a1.764,1.764,0,0,0-1,.312V1.775a1,1,0,0,1,1-1Zm6.9,16.2h1.553v.962l-.5-.5a.386.386,0,0,0-.544,0l-.5.5Zm.776,1.277.732.729H9.215Zm5.676.729H11.477a.385.385,0,0,0,.018-.116v-1.89h4.128Zm0-2.778H7.309a.386.386,0,1,0,0,.772H8.4v1.89a.385.385,0,0,0,.018.116H2.274a1,1,0,1,1,0-2.006H4.223a.386.386,0,0,0,0-.772H3.355V.772H15.623V4.413a5.477,5.477,0,1,0-1.175,8.832l1.175,1.175V16.2Zm3.675-.083a.625.625,0,0,1-.883,0l-1.847-1.847.883-.883L19.3,15.238A.625.625,0,0,1,19.3,16.121Zm0,0" transform="translate(-0.5 0)" fill="#1e1c1d"/>
    <path id="Path_87" data-name="Path 87" d="M102.55,54.44h3.215a.386.386,0,0,0,0-.772H102.55a.386.386,0,0,0,0,.772Zm0,0" transform="translate(-98.242 -51.598)" fill="#1e1c1d"/>
    <path id="Path_88" data-name="Path 88" d="M104.543,98.054a.386.386,0,0,0-.386-.386H102.55a.386.386,0,1,0,0,.772h1.608A.386.386,0,0,0,104.543,98.054Zm0,0" transform="translate(-98.242 -93.9)" fill="#1e1c1d"/>
    <path id="Path_89" data-name="Path 89" d="M127.386,420a.386.386,0,1,0,.273.113A.388.388,0,0,0,127.386,420Zm0,0" transform="translate(-122.12 -403.797)" fill="#1e1c1d"/>
  </g>
</svg>
