<svg xmlns="http://www.w3.org/2000/svg" width="143.715" height="142.511" viewBox="0 0 143.715 142.511">
  <g id="Group_180" data-name="Group 180" transform="translate(-659 -369)">
    <path id="Path_97" data-name="Path 97" d="M58,0a58,58,0,0,1,58,58c0,32.033-12.667,68-46.333,58S0,90.033,0,58A58,58,0,0,1,58,0Z" transform="matrix(0.259, -0.966, 0.966, 0.259, 659, 481.047)" fill="#5a9c44"/>
    <g id="value" transform="translate(674.892 383.011)">
      <path id="Path_105" data-name="Path 105" d="M81.017,284.872l-.323.175a4.457,4.457,0,0,0-5.3-1.326l-.018.009-.764.411a5.8,5.8,0,0,0-6.641-.6l-4.112,2.236H58.391a7.9,7.9,0,0,1-3.421-.784l-.753-.364a12.913,12.913,0,0,0-13.439,1.313c-.018.014-.035.027-.052.043L38.909,287.6a6.3,6.3,0,0,1-2.379,1.326L35.5,285.54a.818.818,0,0,0-.783-.58H25.926a.818.818,0,0,0-.812.917l2.93,24.022a.818.818,0,0,0,.812.719H42.039a.818.818,0,0,0,.783-1.057L41.09,303.88l5.394-3.409a3.245,3.245,0,0,1,2.368-.306l.051.011,10.972,2.02a14.2,14.2,0,0,0,8.773-1.239.813.813,0,0,0,.1-.059l18.977-13.03a.818.818,0,0,0,.238-1.1A5.209,5.209,0,0,0,81.017,284.872Zm-4.871.3a2.794,2.794,0,0,1,3.055.675l-7.2,3.882-.423.223a6.239,6.239,0,0,0-.986-1.791Zm-7.379-.2.019-.011a4.161,4.161,0,0,1,4.232.04l-3.659,1.97a6.217,6.217,0,0,0-2.337-1.052ZM29.58,308.983,26.85,286.6h7.259l6.825,22.386Zm38.29-9.468a12.551,12.551,0,0,1-7.7,1.07L49.222,298.57a4.879,4.879,0,0,0-3.557.482l-.038.022-5.034,3.182L37.007,290.5A7.946,7.946,0,0,0,40,288.824l1.792-1.6A11.282,11.282,0,0,1,53.5,286.1l.753.364a9.55,9.55,0,0,0,4.134.947h7.3a4.616,4.616,0,0,1,4.527,3.749l-5.29-.239a31.682,31.682,0,0,0-5.757.266.818.818,0,1,0,.224,1.621,30,30,0,0,1,5.459-.252l6.226.282h.037a.818.818,0,0,0,.818-.818c0-.132-.006-.264-.014-.394l.854-.45,9.021-4.865a3.575,3.575,0,0,1,4.3.689Z" transform="translate(0 -222.626)" fill="#fff"/>
      <path id="Path_106" data-name="Path 106" d="M76.974,433.874A2.576,2.576,0,1,0,79.55,431.3,2.576,2.576,0,0,0,76.974,433.874Zm2.576-.94a.94.94,0,1,1-.94.94.94.94,0,0,1,.94-.94Z" transform="translate(-44.793 -350.902)" fill="#fff"/>
      <path id="Path_107" data-name="Path 107" d="M222.956,33.9V31.2a6.211,6.211,0,1,0-12.421,0v2.7a6.211,6.211,0,1,0,12.421,0Zm-10.785,0V31.2a4.574,4.574,0,1,1,9.148,0v2.7a4.574,4.574,0,1,1-9.148,0Z" transform="translate(-160.141)" fill="#fff"/>
      <path id="Path_108" data-name="Path 108" d="M85.364,155.144h20.022a.818.818,0,0,0,.818-.818v-1.878H119.91a.818.818,0,0,0,.818-.818v-5.311a6.133,6.133,0,0,0-5.742-6.117.955.955,0,0,0-.843.466,3.755,3.755,0,0,1-5.924-.145.818.818,0,0,0-.678-.332,6.066,6.066,0,0,0-3.01.878,6.878,6.878,0,0,0-4.8-2.381,1,1,0,0,0-.844.491,4.406,4.406,0,0,1-6.952-.17.816.816,0,0,0-.678-.332,6.848,6.848,0,0,0-4.752,2.073c-.1.106-.2.215-.3.326a6.084,6.084,0,0,0-2.79-.876.957.957,0,0,0-.843.466,3.755,3.755,0,0,1-5.924-.145.82.82,0,0,0-.678-.332A6.13,6.13,0,0,0,70,146.319v5.311a.818.818,0,0,0,.818.818H84.546v1.878A.818.818,0,0,0,85.364,155.144Zm21.828-13.29a5.392,5.392,0,0,0,8.073.021,4.5,4.5,0,0,1,3.827,4.444v4.492H106.2v-5.249a6.845,6.845,0,0,0-.756-3.133A4.423,4.423,0,0,1,107.192,141.854ZM90.9,140.339a6.043,6.043,0,0,0,9.128.022,5.256,5.256,0,0,1,4.536,5.2v7.945H86.182v-7.945A5.286,5.286,0,0,1,90.9,140.339ZM71.636,150.811v-4.492a4.525,4.525,0,0,1,3.989-4.464,5.392,5.392,0,0,0,8.072.021,4.464,4.464,0,0,1,1.6.563,6.855,6.855,0,0,0-.748,3.124v5.249Z" transform="translate(-38.77 -98.186)" fill="#fff"/>
      <path id="Path_109" data-name="Path 109" d="M342.206,58.158V55.8a5.538,5.538,0,1,0-11.076,0v2.36a5.538,5.538,0,1,0,11.076,0Zm-9.44,0V55.8a3.9,3.9,0,1,1,7.8,0v2.36a3.9,3.9,0,1,1-7.8,0Z" transform="translate(-264.291 -21.825)" fill="#fff"/>
      <path id="Path_110" data-name="Path 110" d="M110.722,58.158V55.8a5.538,5.538,0,0,0-11.076,0v2.36a5.538,5.538,0,1,0,11.076,0Zm-9.44,0V55.8a3.9,3.9,0,1,1,7.8,0v2.36a3.9,3.9,0,1,1-7.8,0Z" transform="translate(-64.374 -21.825)" fill="#fff"/>
    </g>
  </g>
</svg>
