<svg xmlns="http://www.w3.org/2000/svg" xmlns:xlink="http://www.w3.org/1999/xlink" width="164" height="165.702" viewBox="0 0 164 165.702">
  <defs>
    <filter id="Path_96" x="0" y="0" width="164" height="165.702" filterUnits="userSpaceOnUse">
      <feOffset dy="2" input="SourceAlpha"/>
      <feGaussianBlur stdDeviation="8" result="blur"/>
      <feFlood flood-opacity="0.039"/>
      <feComposite operator="in" in2="blur"/>
      <feComposite in="SourceGraphic"/>
    </filter>
  </defs>
  <g id="Group_179" data-name="Group 179" transform="translate(-649 -196)">
    <g transform="matrix(1, 0, 0, 1, 649, 196)" filter="url(#Path_96)">
      <path id="Path_96-2" data-name="Path 96" d="M58,0a58,58,0,0,1,58,58c0,32.033-12.667,68-46.333,58S0,90.033,0,58A58,58,0,0,1,58,0Z" transform="translate(24 22)" fill="#0d4462"/>
    </g>
    <g id="project-management" transform="translate(708 253.933)">
      <g id="Group_148" data-name="Group 148" transform="translate(0 0.254)">
        <g id="Group_147" data-name="Group 147">
          <path id="Path_102" data-name="Path 102" d="M44.735,13.78h0l0,0L41.8,13.36a.753.753,0,0,1-.346-1.348l2.367-1.776a.753.753,0,0,0,.151-1.054L41.266,5.568a.753.753,0,0,0-1.054-.151L37.845,7.193a.753.753,0,0,1-1.2-.709l.419-2.929a.753.753,0,0,0-.638-.852h0l-4.47-.639A.753.753,0,0,0,31.1,2.7h0l-.419,2.929a.753.753,0,0,1-1.348.346L27.56,3.61a.753.753,0,0,0-1.054-.151l-2.263,1.7a14.57,14.57,0,0,0-3.08,0A14.307,14.307,0,0,0,8.548,17.987c-.02.213-.028.425-.038.636H8.284a.753.753,0,0,0-.736.6L7.027,21.7,4.943,20.262a.753.753,0,0,0-.96.087L1.724,22.609a.753.753,0,0,0-.087.959l1.431,2.081-2.475.52A.753.753,0,0,0,0,26.906v3.012a.753.753,0,0,0,.6.737l2.475.52L1.642,33.256a.753.753,0,0,0,.087.959l2.259,2.259a.753.753,0,0,0,.96.087l2.081-1.434L7.55,37.6a.753.753,0,0,0,.736.6H11.3a.753.753,0,0,0,.737-.6l.52-2.475,2.081,1.431a.753.753,0,0,0,.959-.087L16.765,35.3v2.146a3,3,0,0,0,1.506,2.593v4.184a3.012,3.012,0,0,0,3.012,3.012H24.3a3.012,3.012,0,0,0,3.012-3.012V40.042a3,3,0,0,0,1.506-2.593v-2.98a3.69,3.69,0,0,1,1.742-3.074,14.45,14.45,0,0,0,1.773-1.355l-1-1.122a12.819,12.819,0,0,1-1.587,1.213,5.187,5.187,0,0,0-2.429,4.338v2.98A1.506,1.506,0,0,1,25.8,38.954H19.777a1.506,1.506,0,0,1-1.506-1.506V34.405a5.066,5.066,0,0,0-2.389-4.25A12.763,12.763,0,0,1,22.627,6.586a.819.819,0,0,0-.029.082.753.753,0,0,0,.144.558l1.775,2.367a.737.737,0,0,1,.045.836.749.749,0,0,1-.753.362l-2.929-.419a.753.753,0,0,0-.852.638h0l-.639,4.472a.753.753,0,0,0,.638.852h0l2.929.419A.753.753,0,0,1,23.3,18.1l-2.367,1.775a.753.753,0,0,0-.151,1.054L23.5,24.546a.753.753,0,0,0,1.054.151l2.367-1.775a.753.753,0,0,1,1.2.709L27.7,26.56a.753.753,0,0,0,.638.852h0l4.473.639a.834.834,0,0,0,.106.007.753.753,0,0,0,.746-.646l.418-2.929a.753.753,0,0,1,1.348-.346L37.2,26.5a.753.753,0,0,0,1.054.151l3.614-2.711a.753.753,0,0,0,.151-1.054l-1.775-2.367a.74.74,0,0,1-.045-.836.731.731,0,0,1,.753-.361l2.929.418a.753.753,0,0,0,.852-.638h0l.639-4.473A.753.753,0,0,0,44.735,13.78ZM19.777,40.46H25.8v1.506H19.777Zm0,3.012H25.8v.753A1.506,1.506,0,0,1,24.3,45.731H21.283a1.506,1.506,0,0,1-1.506-1.506ZM13.782,30.487a14.231,14.231,0,0,0,1.287.937,3.676,3.676,0,0,1,1.517,1.927l-1.615,1.612-1.564-1.078a1.506,1.506,0,0,0-2.328.93l-.395,1.88H8.895L8.5,34.818a1.506,1.506,0,0,0-2.328-.93L4.607,34.963,3.235,33.594l1.078-1.563A1.506,1.506,0,0,0,3.383,29.7l-1.877-.4V27.518l1.877-.4a1.506,1.506,0,0,0,.93-2.325L3.235,23.23l1.372-1.369,1.566,1.078A1.506,1.506,0,0,0,8.5,22.009l.132-.627a14.34,14.34,0,0,0,.6,2.553,4.518,4.518,0,1,0,4.553,6.551Zm-1.169-1.061A3.008,3.008,0,1,1,9.789,25.4h.029A14.261,14.261,0,0,0,12.613,29.426ZM43.346,18.144l-2.184-.312a2.259,2.259,0,0,0-2.126,3.592l1.323,1.764L37.949,25l-1.324-1.764a2.259,2.259,0,0,0-4.044,1.035l-.3,2.187L29.3,26.028l.312-2.184a2.259,2.259,0,0,0-3.592-2.127L24.251,23.04l-1.807-2.41,1.764-1.324a2.259,2.259,0,0,0-1.035-4.044l-2.184-.312.426-2.981,2.184.312A2.259,2.259,0,0,0,25.726,8.69L24.4,6.924l2.41-1.807,1.324,1.764a2.259,2.259,0,0,0,4.044-1.035l.312-2.184,2.981.425-.312,2.184A2.259,2.259,0,0,0,38.748,8.4l1.764-1.323,1.807,2.41-1.764,1.324a2.259,2.259,0,0,0,1.035,4.044l2.184.312Z" transform="translate(0 -2.057)" fill="#fff"/>
        </g>
      </g>
      <g id="Group_150" data-name="Group 150" transform="translate(26.355 7.23)">
        <g id="Group_149" data-name="Group 149">
          <path id="Path_103" data-name="Path 103" d="M286.024,76.171a6.024,6.024,0,1,0,6.024,6.024A6.024,6.024,0,0,0,286.024,76.171Zm0,10.542a4.518,4.518,0,1,1,4.518-4.518A4.518,4.518,0,0,1,286.024,86.713Z" transform="translate(-280 -76.171)" fill="#fff"/>
        </g>
      </g>
      <g id="Group_152" data-name="Group 152" transform="translate(22.036 33.387)">
        <g id="Group_151" data-name="Group 151">
          <rect id="Rectangle_446" data-name="Rectangle 446" width="1.506" height="2.259" fill="#fff"/>
        </g>
      </g>
      <g id="Group_154" data-name="Group 154" transform="translate(12.241 8.653)">
        <g id="Group_153" data-name="Group 153">
          <path id="Path_104" data-name="Path 104" d="M137.3,108.629a9.036,9.036,0,0,1-1.526-16.064l-.8-1.274a10.542,10.542,0,0,0,1.784,18.739,4.807,4.807,0,0,1,3.087,4.488h1.506A6.3,6.3,0,0,0,137.3,108.629Z" transform="translate(-130.044 -91.291)" fill="#fff"/>
        </g>
      </g>
      <g id="Group_156" data-name="Group 156" transform="translate(37.096 28.116)">
        <g id="Group_155" data-name="Group 155">
          <rect id="Rectangle_447" data-name="Rectangle 447" width="5.271" height="1.506" fill="#fff"/>
        </g>
      </g>
      <g id="Group_158" data-name="Group 158" transform="translate(35.861 32.055)">
        <g id="Group_157" data-name="Group 157" transform="translate(0 0)">
          <rect id="Rectangle_448" data-name="Rectangle 448" width="1.506" height="5.881" transform="matrix(0.64, -0.768, 0.768, 0.64, 0, 1.157)" fill="#fff"/>
        </g>
      </g>
      <g id="Group_160" data-name="Group 160" transform="translate(32.578 34.14)">
        <g id="Group_159" data-name="Group 159">
          <rect id="Rectangle_449" data-name="Rectangle 449" width="1.506" height="5.271" fill="#fff"/>
        </g>
      </g>
      <g id="Group_162" data-name="Group 162" transform="translate(0.769 11.571)">
        <g id="Group_161" data-name="Group 161" transform="translate(0 0)">
          <rect id="Rectangle_450" data-name="Rectangle 450" width="6.209" height="1.505" transform="translate(0 1.506) rotate(-14.035)" fill="#fff"/>
        </g>
      </g>
      <g id="Group_164" data-name="Group 164" transform="translate(2.02 4.161)">
        <g id="Group_163" data-name="Group 163" transform="translate(0 0)">
          <rect id="Rectangle_451" data-name="Rectangle 451" width="1.505" height="6.477" transform="matrix(0.581, -0.814, 0.814, 0.581, 0, 1.225)" fill="#fff"/>
        </g>
      </g>
      <g id="Group_166" data-name="Group 166" transform="translate(8.472 0.067)">
        <g id="Group_165" data-name="Group 165" transform="translate(0 0)">
          <rect id="Rectangle_452" data-name="Rectangle 452" width="1.506" height="6.218" transform="matrix(0.969, -0.248, 0.248, 0.969, 0, 0.373)" fill="#fff"/>
        </g>
      </g>
    </g>
  </g>
</svg>
