<svg xmlns="http://www.w3.org/2000/svg" width="154.708" height="153.845" viewBox="0 0 154.708 153.845">
  <g id="Group_181" data-name="Group 181" transform="translate(-653.646 -537.929)">
    <path id="Path_98" data-name="Path 98" d="M58,0a58,58,0,0,1,58,58c0,32.033-12.667,68-46.333,58S0,90.033,0,58A58,58,0,0,1,58,0Z" transform="matrix(-0.407, 0.914, -0.914, -0.407, 808.354, 585.802)" fill="#ad207e"/>
    <g id="eye-care" transform="translate(700.027 588.027)">
      <path id="Path_111" data-name="Path 111" d="M32.973,6.73a5.3,5.3,0,1,0,5.3,5.3A5.306,5.306,0,0,0,32.973,6.73Zm0,8.668a3.368,3.368,0,1,1,3.368-3.368A3.372,3.372,0,0,1,32.973,15.4ZM20.294,29.853a4.2,4.2,0,0,0-2.986-1.265h-.031a4.229,4.229,0,0,0-4.141,3.382l-2.04-2a3.122,3.122,0,0,1-.907-1.811L8.651,16.594A4.345,4.345,0,0,0,0,17.167V33.779a6.726,6.726,0,0,0,1.595,4.345l13.071,15.41a3.259,3.259,0,0,1,.773,2.107v9.339a.966.966,0,0,0,1.932,0V55.641a5.2,5.2,0,0,0-1.232-3.356L3.068,36.875a4.791,4.791,0,0,1-1.136-3.1V17.167a2.413,2.413,0,0,1,4.8-.318L8.274,28.416a5.062,5.062,0,0,0,1.47,2.937l6.579,6.44,2.331,2.281a.966.966,0,1,0,1.351-1.38l-4.333-4.241a2.294,2.294,0,1,1,3.242-3.246l8.938,9.105A6.428,6.428,0,0,1,29.7,44.84V64.979a.966.966,0,0,0,1.932,0V44.84a8.349,8.349,0,0,0-2.4-5.882ZM56.216,13.316a2.465,2.465,0,0,0,0-3.16,28.842,28.842,0,0,0-10.073-7.4A32.126,32.126,0,0,0,32.973,0,28.183,28.183,0,0,0,19.389,2.945.966.966,0,0,0,20.2,4.7a29.082,29.082,0,0,1,3.71-1.417,15.292,15.292,0,0,0-2.684,8.749,15.406,15.406,0,0,0,2.2,8.013,29.6,29.6,0,0,1-2.838-1.092,26.9,26.9,0,0,1-9.4-6.9.548.548,0,0,1,0-.637,25.856,25.856,0,0,1,5.193-4.577.966.966,0,1,0-1.076-1.6,27.791,27.791,0,0,0-5.58,4.92,2.465,2.465,0,0,0,0,3.16,28.841,28.841,0,0,0,10.073,7.4,32.125,32.125,0,0,0,13.171,2.758,32.127,32.127,0,0,0,13.171-2.757,28.844,28.844,0,0,0,10.073-7.4ZM32.973,21.54a31.1,31.1,0,0,1-6.517-.681,12.972,12.972,0,0,1-3.3-8.83,12.742,12.742,0,0,1,4.05-9.561,31.406,31.406,0,0,1,11.513-.01,12.738,12.738,0,0,1,4.062,9.571,12.972,12.972,0,0,1-3.3,8.83A31.106,31.106,0,0,1,32.973,21.54Zm9.546-1.5a15.407,15.407,0,0,0,2.2-8.013,15.29,15.29,0,0,0-2.689-8.755,29.512,29.512,0,0,1,3.328,1.247,26.9,26.9,0,0,1,9.4,6.9.548.548,0,0,1,0,.637,26.9,26.9,0,0,1-9.4,6.9,29.487,29.487,0,0,1-2.838,1.093ZM35.276,54.821a.966.966,0,0,0-.966.966v9.193a.966.966,0,0,0,1.932,0V55.786A.966.966,0,0,0,35.276,54.821Zm26.325-42a4.358,4.358,0,0,0-4.307,3.772L55.756,28.161a3.122,3.122,0,0,1-.907,1.811l-2.04,2a4.227,4.227,0,0,0-7.158-2.116l-8.938,9.105a8.349,8.349,0,0,0-2.4,5.882v6.439a.966.966,0,0,0,1.932,0V44.84a6.427,6.427,0,0,1,1.851-4.528l8.938-9.105a2.294,2.294,0,1,1,3.242,3.247L45.94,38.694a.966.966,0,1,0,1.351,1.38l8.91-8.721a5.063,5.063,0,0,0,1.47-2.937l1.538-11.567a2.413,2.413,0,0,1,4.8.318V33.779a4.791,4.791,0,0,1-1.136,3.1L49.806,52.285a5.194,5.194,0,0,0-1.232,3.356v9.338a.966.966,0,0,0,1.932,0V55.641a3.259,3.259,0,0,1,.773-2.107l13.071-15.41a6.726,6.726,0,0,0,1.595-4.345V17.167A4.35,4.35,0,0,0,61.6,12.822Z" transform="translate(0 0)" fill="#fff"/>
    </g>
  </g>
</svg>
