<svg xmlns="http://www.w3.org/2000/svg" width="102.372" height="226.167" viewBox="0 0 102.372 226.167">
  <g id="Group_178" data-name="Group 178" transform="translate(-197.564 -395.667)">
    <path id="Path_4" data-name="Path 4" d="M249,390.333v103a207.61,207.61,0,0,1,26.686,19.513c9.355,8.235,17.814,18.058,17.814,26.487,0,19.333-23.125,41.333-44.5,41.333s-41-22-41-41.333,41-46,41-46Z" transform="translate(-2 33)" fill="none" stroke="#fff" stroke-width="1" stroke-dasharray="10" opacity="0.46"/>
    <path id="Path_5" data-name="Path 5" d="M256.611,390.333V512.454a246.15,246.15,0,0,1,31.639,23.135c11.092,9.763,21.122,21.41,21.122,31.4,0,22.922-27.418,49.006-52.761,49.006S208,589.916,208,566.993s48.611-54.539,48.611-54.539Z" transform="translate(-9.936 5.333)" fill="none" stroke="#fff" stroke-width="1" stroke-dasharray="10" opacity="0.53"/>
  </g>
</svg>
