<svg
  xmlns:svg="http://www.w3.org/2000/svg"
  xmlns="http://www.w3.org/2000/svg"
  version="1.1"
  viewBox="0 0 285 287"
  height="287"
  width="285"
>
  <defs>
    <clipPath
      id="clip-path"
    >
      <rect
        stroke-width="1"
        stroke="#707070"
        fill="#fff"
        transform="translate(960 407)"
        height="287"
        width="285"
      />
    </clipPath>
    <clipPath
      id="clip-path-2"
    >
      <path
        fill="none"
        transform="translate(-769.543 -776.513)"
        d="M769.543,930.8A154.288,154.288,0,1,0,923.831,776.513,154.291,154.291,0,0,0,769.543,930.8"
      />
    </clipPath>
  </defs>
  <g
    clip-path="url(#clip-path)"
    transform="translate(-960 -407)"
  >
    <g
      opacity="0.33"
      transform="translate(231.457 -345.514)"
    >
      <g
        clip-path="url(#clip-path-2)"
        transform="translate(769.543 776.513)"
      >
        <path
          fill="#3fb1fc"
          transform="translate(-721.846 -650.592)"
          d="M876.15,832.721h-.013a85.689,85.689,0,0,0-11.892.823c.318.415.625.833.93,1.254a84.992,84.992,0,0,1,10.962-.707v-.006l.318.01h.013a85.359,85.359,0,0,1,10.6.706c.3-.418.616-.836.927-1.251a85.858,85.858,0,0,0-11.506-.82l-.34-.01m-13.447,1.05a84.763,84.763,0,0,0-22.186,6.72c-.3.655-.609,1.3-.927,1.951a83.291,83.291,0,0,1,24.052-7.427c-.311-.418-.622-.83-.94-1.244m26.839.01q-.476.613-.937,1.235a83.288,83.288,0,0,1,24.062,7.427q-.476-.968-.924-1.944a84.6,84.6,0,0,0-22.2-6.717m-50.969,7.634a85.641,85.641,0,0,0-16.441,10.573c.366.288.726.583,1.083.885a83.812,83.812,0,0,1,14.332-9.406q.525-1.016,1.027-2.051m75.112.006c.334.687.674,1.371,1.027,2.045a84.061,84.061,0,0,1,14.341,9.413c.353-.3.713-.6,1.076-.882a85.18,85.18,0,0,0-16.444-10.576m-92.623,11.458a85.654,85.654,0,0,0-21.535,27.581c.687-.33,1.37-.674,2.044-1.024a84.2,84.2,0,0,1,15.21-20.764q2.571-2.571,5.363-4.919c-.356-.3-.716-.59-1.082-.875m110.14.01c-.366.285-.722.574-1.079.872a84.276,84.276,0,0,1,20.563,25.686c.677.35,1.358.69,2.048,1.024A85.661,85.661,0,0,0,931.2,852.888m-55.052,23.2h-.013q-1.764,0-3.493.143c-.048.46-.087.917-.133,1.38,1.192-.107,2.391-.159,3.606-.159l.337.01h.013q1.648.014,3.263.155c-.039-.46-.081-.92-.13-1.38q-1.541-.126-3.111-.139l-.34-.01m-4.889.279a41.936,41.936,0,0,0-22.206,73.667c.356-.292.716-.587,1.069-.885a40.567,40.567,0,0,1,21.01-71.393c.036-.463.081-.927.126-1.39m9.727.006q.068.7.126,1.39a40.553,40.553,0,0,1,21.02,71.386c.357.3.713.593,1.073.885a42.182,42.182,0,0,0,8.742-10.213,41.923,41.923,0,0,0-30.961-63.448m-80.443,5.107q-.962.476-1.941.923a84.917,84.917,0,0,0-7.77,35.62q0,3.592.292,7.113c.457.055.917.1,1.377.146q-.306-3.587-.308-7.259a83.665,83.665,0,0,1,8.35-36.543m151.168,0a83.542,83.542,0,0,1,8.253,32.581l.687-.029-.687.032c.062,1.312.1,2.628.1,3.956q0,3.665-.308,7.255c.463-.039.917-.087,1.377-.146.194-2.343.292-4.718.292-7.109,0-1.354-.036-2.693-.1-4.024a84.945,84.945,0,0,0-7.676-31.589c-.654-.3-1.3-.609-1.944-.927m-160.458,45.04q.4,4.054,1.173,7.984c.528.34,1.063.684,1.594,1.017a82.944,82.944,0,0,1-1.387-8.862c-.463-.039-.924-.084-1.381-.139m169.758,0c-.46.055-.92.1-1.38.139a83.894,83.894,0,0,1-1.39,8.862c.531-.334,1.069-.677,1.594-1.018.515-2.618.907-5.285,1.176-7.984m-109.806,23.5c-.356.3-.713.6-1.073.891a41.755,41.755,0,0,0,11.464,6.445,11.139,11.139,0,0,1,2.566,1.351c.768.062,1.546.113,2.313.162a12.322,12.322,0,0,0-4.4-2.79,40.583,40.583,0,0,1-10.871-6.059m49.848,0a40.492,40.492,0,0,1-10.865,6.059,12.3,12.3,0,0,0-4.4,2.79c.771-.049,1.539-.1,2.307-.162a11.22,11.22,0,0,1,2.569-1.351,41.688,41.688,0,0,0,11.461-6.442c-.36-.295-.716-.593-1.073-.894"
        />
        <path
          fill="#3fb1fc"
          transform="translate(-721.846 -776.309)"
          d="M885.783,776.6a12.343,12.343,0,0,0,4.41,2.8,40.443,40.443,0,0,1,10.858,6.053c.356-.3.716-.6,1.073-.894a41.805,41.805,0,0,0-11.461-6.442,11.227,11.227,0,0,1-2.57-1.351c-.768-.062-1.536-.113-2.31-.162m-19.3,0c-.774.049-1.549.1-2.317.162a11.293,11.293,0,0,1-2.57,1.351,41.793,41.793,0,0,0-11.458,6.445c.356.295.716.593,1.073.894a40.293,40.293,0,0,1,10.861-6.056,12.372,12.372,0,0,0,4.41-2.8M903.2,785.44q-.535.438-1.069.885a40.565,40.565,0,0,1-21,71.393q-.059.7-.126,1.39a41.931,41.931,0,0,0,22.2-73.667m-54.142,0a41.926,41.926,0,0,0,22.2,73.661q-.068-.7-.126-1.39a40.565,40.565,0,0,1-21-71.386q-.535-.447-1.069-.885m109.177,14.5a84.843,84.843,0,0,1,1.393,8.872c.46.039.92.084,1.377.136q-.4-4.054-1.176-7.99c-.525-.344-1.06-.684-1.594-1.018m-164.217,0c-.531.333-1.066.674-1.6,1.017-.515,2.618-.9,5.285-1.173,7.984.46-.052.917-.1,1.38-.139a83.01,83.01,0,0,1,1.39-8.862M792.5,810.2c-.457.039-.92.091-1.377.146-.188,2.346-.288,4.718-.288,7.115,0,1.348.036,2.693.1,4.018l.681-.032.684-.032-.684.032-.681.032a84.753,84.753,0,0,0,7.673,31.589c.651.3,1.3.613,1.944.927A83.412,83.412,0,0,1,792.3,821.41c-.065-1.316-.107-2.631-.107-3.953q0-3.674.308-7.261m167.262,0q.306,3.587.308,7.258A83.7,83.7,0,0,1,951.716,854q.968-.476,1.944-.927a84.978,84.978,0,0,0,7.77-35.614q0-3.6-.3-7.112c-.457-.055-.911-.1-1.371-.146M799.531,855.012a85.6,85.6,0,0,0,21.531,27.578c.363-.282.722-.574,1.079-.872a84.244,84.244,0,0,1-20.562-25.679c-.677-.35-1.358-.693-2.048-1.027m153.2.01c-.69.331-1.371.674-2.045,1.024a84.255,84.255,0,0,1-15.207,20.76q-2.571,2.571-5.363,4.919c.353.3.716.593,1.082.875a85.644,85.644,0,0,0,21.532-27.578m-80.216,2.839c.039.46.081.92.129,1.38,1.034.084,2.074.133,3.127.143l.34.007h.02c1.176,0,2.339-.052,3.486-.146.046-.46.091-.917.13-1.38q-1.779.16-3.6.162l-.337-.007h-.016q-1.652-.015-3.276-.159M823.211,882.6c-.356.3-.716.593-1.076.881a85.285,85.285,0,0,0,16.441,10.573c-.334-.687-.674-1.367-1.027-2.045a84.017,84.017,0,0,1-14.338-9.41m105.837.006a84,84,0,0,1-14.325,9.4c-.35.681-.693,1.361-1.027,2.048a85.394,85.394,0,0,0,16.431-10.567c-.366-.285-.723-.58-1.079-.885m-89.454,10.427q.476.968.927,1.944a84.617,84.617,0,0,0,22.206,6.717c.314-.408.629-.82.933-1.235a83.4,83.4,0,0,1-24.065-7.427m73.081,0a83.209,83.209,0,0,1-24.055,7.43c.3.415.615.83.933,1.238a84.647,84.647,0,0,0,22.2-6.72c.3-.651.609-1.3.923-1.947m-47.479,7.637q-.457.627-.927,1.251a85.86,85.86,0,0,0,11.506.82l.34.01h.02a85.977,85.977,0,0,0,11.875-.82c-.314-.415-.622-.833-.93-1.251a84.538,84.538,0,0,1-10.933.706l-.337-.01h-.016a84.831,84.831,0,0,1-10.6-.706"
        />
        <path
          fill="#3fb1fc"
          transform="translate(-769.339 -728.815)"
          d="M810.481,797.8q-3.592,0-7.115.292c-.055.463-.1.92-.146,1.384q3.591-.306,7.261-.311a83.565,83.565,0,0,1,36.544,8.354c-.314-.645-.625-1.3-.924-1.947a84.954,84.954,0,0,0-35.62-7.77m-8.506.418q-4.049.4-7.978,1.173c-.347.535-.684,1.066-1.021,1.6a83.749,83.749,0,0,1,8.862-1.39c.039-.463.087-.924.136-1.387m46.07,8.279c.334.687.674,1.367,1.027,2.045a84.346,84.346,0,0,1,20.763,15.21q2.571,2.571,4.916,5.363c.3-.357.59-.719.875-1.083A85.659,85.659,0,0,0,848.045,806.5m28.475,22.611c-.285.363-.583.723-.881,1.076a84.135,84.135,0,0,1,9.4,14.332c.674.35,1.361.693,2.045,1.024a85.285,85.285,0,0,0-10.567-16.431m-66.04,12.064a41.82,41.82,0,0,0-32.014,14.86c.292.356.59.713.885,1.066a40.574,40.574,0,0,1,71.4,21c.46.039.92.081,1.384.126a41.929,41.929,0,0,0-41.65-37.055m75.589,5.388a83.308,83.308,0,0,1,7.423,24.052c.415-.308.83-.619,1.238-.933a84.886,84.886,0,0,0-6.717-22.192c-.655-.3-1.3-.609-1.944-.927M777.589,857.11a41.889,41.889,0,0,0-6.442,11.464,11.219,11.219,0,0,1-1.351,2.569c-.062.771-.11,1.536-.162,2.307a12.342,12.342,0,0,0,2.79-4.407,40.579,40.579,0,0,1,6.056-10.861c-.3-.356-.6-.713-.891-1.073m117.372,14.111c-.415.314-.833.622-1.254.93a84.6,84.6,0,0,1,.709,10.939l0,.337v.016a85.394,85.394,0,0,1-.706,10.6q.627.457,1.251.927a85.875,85.875,0,0,0,.816-11.512l.01-.341V883.1a86.036,86.036,0,0,0-.823-11.882m-44.068,8.266c.1,1.186.159,2.388.159,3.6l-.01.337v.01q-.015,1.653-.159,3.27c.463-.039.92-.084,1.384-.13q.126-1.545.139-3.117l0-.341V883.1c0-1.173-.045-2.336-.143-3.487-.457-.048-.917-.091-1.374-.129m1.238,8.48q-.7.068-1.39.126a40.561,40.561,0,0,1-71.386,21.016c-.295.353-.593.709-.884,1.069a42.162,42.162,0,0,0,10.216,8.746,41.92,41.92,0,0,0,63.444-30.958m-82.5,4.789c.052.774.1,1.546.162,2.317a11.132,11.132,0,0,1,1.351,2.566,41.845,41.845,0,0,0,6.438,11.461c.3-.359.593-.719.894-1.076a40.453,40.453,0,0,1-6.056-10.858,12.329,12.329,0,0,0-2.79-4.41m123.859,2.825a83.446,83.446,0,0,1-7.43,24.056c.645-.314,1.29-.622,1.944-.924a84.867,84.867,0,0,0,6.72-22.2q-.617-.471-1.235-.933m-6.412,25.083c-.684.331-1.367.674-2.045,1.024a84.018,84.018,0,0,1-9.41,14.338c.3.353.593.713.885,1.076a85.371,85.371,0,0,0,10.57-16.438m-12.336,16.428a84.3,84.3,0,0,1-25.679,20.566q-.525,1.016-1.027,2.048a85.636,85.636,0,0,0,27.578-21.532c-.282-.363-.573-.726-.871-1.082m-27.724,21.593a83.472,83.472,0,0,1-32.581,8.256c-1.315.062-2.631.1-3.96.1q-3.674,0-7.261-.311c.042.46.087.92.146,1.38q3.519.292,7.115.292c1.355,0,2.689-.036,4.024-.1a84.765,84.765,0,0,0,31.59-7.673c.3-.651.612-1.3.927-1.944m-54.044,6.526c.337.538.674,1.069,1.021,1.6q3.932.773,7.978,1.173c-.052-.46-.1-.924-.136-1.384a83.812,83.812,0,0,1-8.862-1.39"
        />
        <path
          fill="#107bf9"
          transform="translate(-716.476 -645.222)"
          d="M835.147,835.118c-.655.3-1.3.609-1.948.927-.331.69-.674,1.374-1.024,2.051.677-.353,1.358-.693,2.045-1.027.318-.645.625-1.293.927-1.95M796.2,874.066c-.674.35-1.358.693-2.044,1.024-.314.645-.626,1.3-.927,1.948.654-.3,1.3-.606,1.944-.923.334-.69.677-1.371,1.027-2.048"
        />
        <path
          fill="#107bf9"
          transform="translate(-716.474 -723.443)"
          d="M793.232,800.2c.3.651.609,1.3.927,1.947.687.331,1.367.674,2.051,1.024-.353-.677-.693-1.358-1.031-2.048-.641-.314-1.29-.625-1.947-.923m38.948,38.945c.347.677.693,1.358,1.024,2.045.648.318,1.29.625,1.947.924-.3-.652-.613-1.3-.927-1.944-.69-.331-1.374-.674-2.044-1.024"
        />
        <path
          fill="#3fb1fc"
          transform="translate(-643.625 -728.815)"
          d="M911.05,797.8c-1.351,0-2.689.045-4.015.1a84.91,84.91,0,0,0-31.6,7.676c-.3.651-.609,1.306-.93,1.947a83.508,83.508,0,0,1,32.591-8.259c1.306-.058,2.631-.1,3.95-.1q3.67,0,7.261.311-.063-.69-.146-1.38-3.519-.292-7.116-.295m8.5.418c.052.463.1.924.136,1.387a84.01,84.01,0,0,1,8.875,1.39c-.337-.535-.68-1.069-1.024-1.6-2.618-.512-5.288-.907-7.987-1.176M873.5,806.5a85.67,85.67,0,0,0-27.581,21.535c.288.366.577.726.878,1.079a84.237,84.237,0,0,1,25.676-20.563c.353-.681.69-1.361,1.027-2.051m-28.472,22.607a85.508,85.508,0,0,0-10.57,16.438c.69-.334,1.371-.677,2.048-1.027a83.99,83.99,0,0,1,9.407-14.335q-.452-.53-.885-1.076m66.027,12.064A41.936,41.936,0,0,0,869.4,878.24c.463-.049.927-.091,1.39-.13A40.558,40.558,0,0,1,942.179,857.1c.3-.356.593-.71.881-1.069a41.931,41.931,0,0,0-32.01-14.86m-75.576,5.395q-.967.476-1.944.927a84.739,84.739,0,0,0-6.724,22.206q.617.472,1.241.933a83.306,83.306,0,0,1,7.427-24.065M943.942,857.11c-.292.36-.593.719-.891,1.073a40.3,40.3,0,0,1,6.053,10.861,12.448,12.448,0,0,0,2.8,4.41c-.045-.771-.1-1.536-.162-2.307a11.18,11.18,0,0,1-1.354-2.573,41.763,41.763,0,0,0-6.445-11.464M826.579,871.244a86.266,86.266,0,0,0-.816,11.5l-.013.337v.023a85.987,85.987,0,0,0,.823,11.879c.415-.314.833-.622,1.247-.93a85.055,85.055,0,0,1-.7-10.929l.01-.337v-.016a84.107,84.107,0,0,1,.7-10.6c-.421-.3-.836-.612-1.251-.927"
        />
        <path
          fill="#0455f6"
          transform="translate(-638.246 -723.439)"
          d="M870.061,800.2q-.977.452-1.944.924c-.333.69-.674,1.37-1.024,2.051q1.011-.525,2.042-1.027c.317-.641.625-1.3.927-1.947m-38.938,38.941c-.674.35-1.358.693-2.044,1.027-.318.641-.629,1.293-.927,1.947q.982-.452,1.944-.927c.334-.69.677-1.37,1.027-2.048"
        />
        <path
          fill="#3fb1fc"
          transform="translate(-642.896 -672.336)"
          d="M869.922,823.015c-.46.039-.92.084-1.38.129-.084,1.031-.133,2.071-.139,3.12l-.007.34v.02c0,1.176.045,2.339.143,3.49.457.049.917.091,1.374.13-.1-1.186-.159-2.385-.159-3.6l.013-.337v-.016c0-1.1.058-2.194.155-3.276m-1.244,8.486a41.925,41.925,0,0,0,73.661,22.2c-.292-.357-.586-.716-.885-1.069a40.574,40.574,0,0,1-71.393-21.007c-.46-.039-.927-.081-1.384-.126m82.5,4.773a12.43,12.43,0,0,0-2.8,4.41,40.3,40.3,0,0,1-6.05,10.868c.3.356.6.713.891,1.073a41.881,41.881,0,0,0,6.442-11.464,11.135,11.135,0,0,1,1.354-2.573c.062-.768.114-1.539.162-2.313m-123.866,2.838c-.415.308-.826.619-1.238.933a84.674,84.674,0,0,0,6.72,22.2c.648.3,1.3.609,1.941.924a83.421,83.421,0,0,1-7.423-24.052m6.406,25.073a85.273,85.273,0,0,0,10.57,16.438c.289-.36.58-.719.882-1.073a84.038,84.038,0,0,1-9.406-14.342q-1.016-.525-2.045-1.024"
        />
        <path
          fill="#0455f6"
          transform="translate(-638.252 -645.216)"
          d="M828.148,835.121q.447.977.923,1.944,1.031.5,2.045,1.024c-.35-.674-.694-1.358-1.024-2.045-.645-.314-1.3-.622-1.944-.924"
        />
        <path
          fill="#3fb1fc"
          transform="translate(-629.69 -632.511)"
          d="M832.842,840.792c-.295.356-.59.716-.872,1.079a85.6,85.6,0,0,0,27.584,21.535c-.33-.684-.671-1.367-1.024-2.042a84.3,84.3,0,0,1-20.767-15.209q-2.571-2.571-4.922-5.363m27.733,21.6c.318.645.622,1.29.924,1.944a85,85,0,0,0,35.617,7.767q3.6,0,7.116-.292.083-.69.146-1.38-3.592.306-7.261.311a83.608,83.608,0,0,1-36.541-8.35"
        />
        <path
          fill="#0455f6"
          transform="translate(-611.327 -618.29)"
          d="M840.167,847.14q.53,1.016,1.024,2.044.968.476,1.948.924-.452-.977-.927-1.944c-.69-.33-1.367-.674-2.044-1.024"
        />
        <path
          fill="#3fb1fc"
          transform="translate(-578.773 -613.074)"
          d="M863.716,849.468a83.518,83.518,0,0,1-8.882,1.393c-.035.46-.084.923-.136,1.384,2.7-.269,5.372-.661,7.99-1.173.347-.535.69-1.066,1.027-1.6"
        />
        <path
          fill="#3fb1fc"
          transform="translate(-666.534 -673.497)"
          d="M900.818,822.5q-3.558,0-7.116.295c-.055.46-.107.92-.146,1.384q3.626-.311,7.261-.311a84.233,84.233,0,0,1,25.439,3.927c.726-.23,1.452-.47,2.168-.719a85.391,85.391,0,0,0-27.607-4.575m-8.506.424a85.319,85.319,0,0,0-19.1,4.148c.722.246,1.445.492,2.174.722a83.946,83.946,0,0,1,16.791-3.483c.039-.47.084-.927.136-1.387m-21.133,4.87a85.041,85.041,0,0,0-20.449,10.942c.072.519.139,1.03.22,1.542a83.068,83.068,0,0,1,22.257-11.762c-.677-.233-1.351-.473-2.028-.723m59.274,0q-1.006.374-2.025.723a83.463,83.463,0,0,1,28.877,17.2l.463-.5-.463.5c.972.891,1.931,1.8,2.867,2.728q2.6,2.6,4.916,5.356c.3-.356.59-.716.875-1.082q-2.284-2.693-4.825-5.243c-.953-.949-1.928-1.866-2.913-2.757v0a84.8,84.8,0,0,0-27.772-16.917m-80.971,11.876a86.136,86.136,0,0,0-8.732,7.572h0l-.233.224-.039.029a85.984,85.984,0,0,0-7.8,8.962c.515.074,1.027.149,1.546.23a84.212,84.212,0,0,1,7.239-8.246h0l.237-.22.016-.01a84.339,84.339,0,0,1,7.994-7c-.084-.509-.159-1.027-.23-1.539m-17.724,18.038a84.671,84.671,0,0,0-10.952,20.466q.375,1.016.723,2.035a83.319,83.319,0,0,1,11.765-22.29c-.512-.071-1.024-.146-1.536-.211m-11.671,22.5a85.416,85.416,0,0,0-4.141,19.075c.46-.055.92-.1,1.384-.139a84.547,84.547,0,0,1,3.477-16.759c-.23-.726-.47-1.455-.719-2.177m47.839,1.584a41.931,41.931,0,0,0,32.889,67.932q1.75,0,3.506-.146c.045-.46.088-.924.13-1.384q-1.818.16-3.635.162a40.563,40.563,0,0,1-32-65.5c-.3-.353-.6-.713-.891-1.069M817.2,900.519c-.463.042-.924.091-1.38.143q-.3,3.563-.295,7.129a85.5,85.5,0,0,0,4.572,27.623q.379-1.084.723-2.174a84.2,84.2,0,0,1-3.93-25.449q0-3.641.311-7.271m4.339,34.891c-.23.68-.473,1.354-.719,2.032A84.939,84.939,0,0,0,840.5,968.1q2.542,2.542,5.236,4.825c.366-.282.726-.577,1.082-.872q-2.751-2.323-5.353-4.912a83.67,83.67,0,0,1-19.931-31.735M922.877,943.5a12.44,12.44,0,0,0-5.084,1.147,40.6,40.6,0,0,1-11.969,3.4c-.036.47-.081.93-.126,1.4a41.95,41.95,0,0,0,12.666-3.555,10.888,10.888,0,0,1,2.764-.859c.593-.505,1.166-1.008,1.75-1.526m-74.986,29.441c-.353.3-.713.6-1.079.885,2.1,1.72,4.274,3.334,6.494,4.828.612-.133,1.241-.272,1.857-.412a83.281,83.281,0,0,1-7.271-5.3"
        />
        <path
          fill="#107bf9"
          transform="translate(-666.33 -650.021)"
          d="M832.481,832.976c-.314.415-.625.833-.927,1.254q.768.1,1.536.214.462-.622.937-1.238c-.518-.081-1.031-.155-1.546-.23M817.125,875.66c-.463.039-.923.084-1.384.14-.045.463-.087.923-.126,1.387q.685-.082,1.38-.146c.042-.46.084-.92.129-1.381m88.5,48.9c-.46.058-.914.107-1.374.149-.042.46-.084.927-.13,1.384.457-.036.92-.084,1.377-.136.049-.467.091-.927.126-1.4m-59,24.017c-.356.295-.716.59-1.079.872.353.3.713.6,1.073.894.363-.288.722-.58,1.076-.881q-.535-.438-1.069-.885"
        />
        <path
          fill="#3fb1fc"
          transform="translate(-649.277 -656.229)"
          d="M823.246,830.2l-.019.02.019-.02M949.6,836.517c-.288.366-.58.726-.881,1.079a83.276,83.276,0,0,1,5.3,7.271q.214-.924.412-1.853-2.236-3.334-4.828-6.5M883.567,848.6a41.8,41.8,0,0,0-26.007,9.037c.36.295.716.59,1.073.891a40.565,40.565,0,0,1,65.492,32.007q0,1.808-.162,3.613c.46-.039.92-.081,1.377-.13q.146-1.74.146-3.483a42.59,42.59,0,0,0-1.176-9.922A41.911,41.911,0,0,0,883.567,848.6m-27.082,9.919c-.794.671-1.568,1.38-2.32,2.119v0l-.24.224-.007.013q-1.244,1.245-2.368,2.57c.292.356.586.713.881,1.066.768-.917,1.578-1.8,2.443-2.664l.24-.233.007,0q1.181-1.166,2.433-2.21c-.356-.3-.71-.593-1.069-.885"
        />
        <path
          fill="#107bf9"
          transform="translate(-626.285 -637.267)"
          d="M834.566,838.669c-.363.288-.719.58-1.076.881.36.295.713.587,1.069.888.356-.3.716-.59,1.079-.875-.353-.3-.713-.6-1.073-.894"
        />
        <path
          fill="#3fb1fc"
          transform="translate(-582.869 -611.155)"
          d="M858.793,850.325c-.46.045-.923.087-1.384.126a40.544,40.544,0,0,1-3.4,11.963,12.267,12.267,0,0,0-1.14,5.09c.509-.58,1.017-1.163,1.52-1.75a10.982,10.982,0,0,1,.862-2.771,41.858,41.858,0,0,0,3.542-12.66"
        />
        <path
          fill="#107bf9"
          transform="translate(-643.053 -673.293)"
          d="M870.225,822.588c-.463.039-.927.081-1.39.13-.052.457-.1.92-.136,1.384.46-.045.92-.091,1.38-.129.036-.463.087-.924.146-1.384m-42.972,15.945c-.415.3-.833.616-1.248.93.071.512.146,1.03.227,1.539.408-.314.823-.625,1.238-.933-.078-.509-.149-1.024-.217-1.536m115.23,13.975c-.285.366-.573.726-.875,1.082.3.353.6.713.888,1.069.3-.353.593-.713.881-1.079q-.442-.539-.894-1.073m-97.156,28c-.3.353-.6.713-.882,1.073.292.36.59.719.891,1.072.282-.363.573-.722.872-1.079-.295-.353-.59-.71-.881-1.066m73.791,30.572c-.457.049-.917.091-1.377.13-.039.46-.091.92-.146,1.38.46-.039.924-.078,1.384-.126.055-.46.1-.92.139-1.384"
        />
        <path
          fill="#3fb1fc"
          transform="translate(-767.175 -774.145)"
          d="M888.977,777.57c-.622.136-1.238.272-1.856.412a83.5,83.5,0,0,1,7.271,5.3c.356-.3.713-.593,1.079-.881q-3.159-2.585-6.494-4.828m7.566,5.722c-.366.285-.729.577-1.082.875q2.756,2.318,5.35,4.909a83.585,83.585,0,0,1,19.931,31.761c.23-.68.473-1.361.719-2.035a84.956,84.956,0,0,0-19.682-30.685q-2.542-2.547-5.236-4.825m-55.059,23.213h-.023c-1.167,0-2.336.049-3.5.146-.045.457-.087.92-.13,1.38q1.808-.16,3.629-.162a40.569,40.569,0,0,1,32,65.5c.3.357.6.713.894,1.073a41.931,41.931,0,0,0-32.876-67.932m-4.9.282a41.922,41.922,0,0,0-12.663,3.551,11.211,11.211,0,0,1-2.767.862c-.587.5-1.173,1.011-1.753,1.523a12.576,12.576,0,0,0,5.094-1.141,40.383,40.383,0,0,1,11.96-3.406c.039-.463.081-.927.129-1.39m-30.841,19.6c-.512.577-1.021,1.167-1.523,1.75a11.043,11.043,0,0,1-.856,2.758,41.719,41.719,0,0,0-3.551,12.66q.695-.068,1.39-.126a40.327,40.327,0,0,1,3.4-11.963,12.306,12.306,0,0,0,1.137-5.078m-4.685,18.421c-.46.042-.923.084-1.38.133-.1,1.16-.143,2.323-.143,3.486a41.921,41.921,0,0,0,67.929,32.9q-.539-.442-1.073-.891a40.572,40.572,0,0,1-65.5-32q.005-1.808.165-3.619m71.532,29.639q-1.152,1.38-2.446,2.673v0l-.227.217-.016.007c-.787.774-1.594,1.513-2.43,2.21.353.295.713.593,1.069.885q1.186-1.006,2.31-2.109l.243-.233.016-.013q1.244-1.244,2.365-2.566c-.292-.36-.586-.716-.885-1.073M771.011,894.1c-.143.619-.279,1.235-.411,1.854q2.236,3.334,4.828,6.49c.285-.363.58-.723.878-1.075a83.287,83.287,0,0,1-5.295-7.268m6.179,8.334q-.447.534-.875,1.082,2.284,2.693,4.825,5.237c.956.956,1.931,1.869,2.913,2.77l.467-.5.454-.509-.454.509-.467.5a84.99,84.99,0,0,0,27.75,16.917c.677-.25,1.351-.489,2.035-.723a83.488,83.488,0,0,1-28.864-17.206c-.972-.881-1.928-1.785-2.868-2.722q-2.6-2.6-4.916-5.356"
        />
        <path
          fill="#0455f6"
          transform="translate(-721.646 -770.807)"
          d="M849.941,779.06c-.366.288-.726.583-1.079.881.356.292.713.586,1.069.888.353-.3.716-.59,1.082-.875-.356-.3-.716-.6-1.073-.894m-57.508,24.253c-.463.039-.92.084-1.38.139-.045.463-.087.923-.13,1.387.457-.055.92-.1,1.38-.146.039-.46.081-.924.13-1.38m29.509,72.9q-.535.447-1.079.875c.353.3.713.6,1.073.891.36-.288.719-.58,1.076-.881-.356-.292-.719-.59-1.069-.885"
        />
        <path
          fill="#0455f6"
          transform="translate(-763.837 -728.612)"
          d="M797.866,797.9c-.463.039-.927.078-1.39.126-.052.46-.1.92-.136,1.384.457-.046.92-.091,1.38-.13.039-.463.091-.92.146-1.38m72.261,29.937c-.288.366-.577.726-.875,1.083.3.353.59.709.885,1.069.3-.353.6-.713.885-1.076-.3-.363-.593-.719-.894-1.076m-97.159,28c-.3.353-.593.713-.878,1.075.292.36.59.716.888,1.073q.428-.549.875-1.082c-.3-.353-.593-.71-.884-1.066"
        />
        <path
          fill="#3fb1fc"
          transform="translate(-662.873 -744.233)"
          d="M817.877,790.922q-.374,1.079-.719,2.174a84.415,84.415,0,0,1,3.93,25.481c0,2.4-.1,4.812-.311,7.21.467-.039.923-.087,1.384-.146q.292-3.524.292-7.064a85.666,85.666,0,0,0-4.575-27.656m4.157,36.109c-.46.052-.924.1-1.387.136a83.866,83.866,0,0,1-3.483,16.794c.23.729.47,1.452.719,2.174a85.14,85.14,0,0,0,4.151-19.1"
        />
        <path
          fill="#0455f6"
          transform="translate(-660.46 -720.226)"
          d="M819.748,801.638c-.46.058-.917.1-1.384.146-.039.46-.084.92-.13,1.38.463-.039.927-.084,1.387-.136q.068-.7.126-1.39"
        />
        <path
          fill="#3fb1fc"
          transform="translate(-699.109 -706.057)"
          d="M852.678,807.963a83.393,83.393,0,0,1-11.756,22.251q.768.112,1.536.214A84.9,84.9,0,0,0,853.4,809.991c-.25-.674-.492-1.351-.722-2.028m-12.686,23.485a84.945,84.945,0,0,1-7.236,8.237l0,0-.24.233-.049.042.036-.032a84.368,84.368,0,0,1-8,7c.081.512.159,1.024.233,1.539a86.21,86.21,0,0,0,8.72-7.559l.243-.23.016-.013a85.719,85.719,0,0,0,7.819-8.982c-.515-.071-1.03-.149-1.539-.23m-16.726,16.409a83.354,83.354,0,0,1-22.283,11.759q1.021.35,2.031.723a84.611,84.611,0,0,0,20.462-10.946c-.062-.515-.133-1.027-.211-1.536"
        />
        <path
          fill="#0455f6"
          transform="translate(-672.141 -690.675)"
          d="M813.954,814.829c-.3.415-.619.83-.933,1.238.512.081,1.027.155,1.542.23q.472-.622.927-1.254c-.515-.065-1.024-.136-1.536-.214"
        />
        <path
          fill="#0455f6"
          transform="translate(-683.703 -679.122)"
          d="M809.095,819.986c-.408.314-.823.625-1.235.933.078.512.149,1.021.211,1.536.421-.3.839-.615,1.254-.927-.071-.515-.152-1.03-.23-1.542"
        />
        <path
          fill="#3fb1fc"
          transform="translate(-737.286 -669.845)"
          d="M836.982,824.127a84.312,84.312,0,0,1-16.768,3.48q-.058.7-.136,1.39a85.557,85.557,0,0,0,19.085-4.151q-1.089-.374-2.181-.719m-50.866.01c-.729.23-1.452.47-2.174.723a85.164,85.164,0,0,0,27.523,4.569q3.616,0,7.222-.3c.055-.457.107-.92.146-1.387q-3.675.321-7.368.321a83.867,83.867,0,0,1-25.349-3.921"
        />
        <path
          fill="#0455f6"
          transform="translate(-713.263 -667.439)"
          d="M796.191,825.2c-.463.049-.92.091-1.384.133-.035.463-.087.927-.143,1.387.463-.039.927-.084,1.39-.13q.073-.69.136-1.39"
        />
        <path
          fill="#3fb1fc"
          transform="translate(-737.283 -673.503)"
          d="M811.569,822.494a85.588,85.588,0,0,0-27.626,4.578c.719.253,1.445.493,2.171.723a84.223,84.223,0,0,1,25.456-3.934c2.424,0,4.851.1,7.268.314-.042-.463-.094-.923-.146-1.384-2.372-.2-4.75-.3-7.122-.3m8.506.424c.055.46.1.923.136,1.387a83.9,83.9,0,0,1,16.768,3.48c.726-.23,1.455-.473,2.177-.723a85.33,85.33,0,0,0-19.082-4.144"
        />
        <path
          fill="#107bf9"
          transform="translate(-713.259 -673.3)"
          d="M794.667,822.585c.055.46.107.92.146,1.384.457.039.92.084,1.377.129-.039-.463-.084-.927-.139-1.387-.46-.045-.923-.088-1.384-.126"
        />
        <path
          fill="#3fb1fc"
          transform="translate(-767.175 -669.845)"
          d="M871.084,824.127c-.677.25-1.351.489-2.032.719a83.438,83.438,0,0,1,22.277,11.765c.078-.512.149-1.024.217-1.536a84.936,84.936,0,0,0-20.462-10.949m-59.281.01a85.018,85.018,0,0,0-30.662,19.685q-2.542,2.537-4.825,5.233.432.549.878,1.086,2.323-2.756,4.912-5.353a83.589,83.589,0,0,1,31.726-19.927c-.677-.23-1.354-.473-2.029-.723M892.8,836c-.074.519-.149,1.027-.233,1.542a84.613,84.613,0,0,1,8.246,7.242h0l.22.233.007.013a85.17,85.17,0,0,1,6.992,7.994c.512-.081,1.027-.159,1.542-.23a85.505,85.505,0,0,0-7.556-8.716h0l-.23-.243-.013-.016A86.4,86.4,0,0,0,892.8,836m8.5,8.3h0M775.425,850.13q-2.585,3.15-4.825,6.487c.136.625.269,1.238.411,1.86a83.478,83.478,0,0,1,5.3-7.268q-.452-.535-.885-1.079m135.08,3.924c-.515.065-1.024.136-1.536.214a83.257,83.257,0,0,1,11.759,22.283q.35-1.021.723-2.032A84.69,84.69,0,0,0,910.5,854.054m-69.063,8.153a41.928,41.928,0,0,0-41.91,41.926c0,1.167.049,2.336.143,3.5.46.045.923.091,1.38.13q-.16-1.813-.162-3.629a40.571,40.571,0,0,1,65.5-32c.356-.3.713-.6,1.069-.888a41.82,41.82,0,0,0-26.019-9.037m27.1,9.918c-.356.292-.713.583-1.066.881q1.37,1.147,2.66,2.433l0,0,.233.24.01.013q1.161,1.181,2.207,2.427c.3-.35.593-.71.885-1.066-.671-.791-1.374-1.565-2.109-2.313l-.233-.243-.013-.01q-1.244-1.249-2.57-2.365m53.63,4.429c-.25.723-.489,1.445-.719,2.174a84.393,84.393,0,0,1,3.48,16.765c.463.039.927.084,1.384.136a85.451,85.451,0,0,0-4.144-19.075m-47.82,1.578c-.3.36-.593.716-.894,1.072a40.557,40.557,0,0,1-22.406,64.349,40.937,40.937,0,0,1-9.6,1.147c-1.205,0-2.414-.055-3.616-.162.042.463.084.92.13,1.38q1.74.146,3.487.146a42.333,42.333,0,0,0,9.925-1.186,41.932,41.932,0,0,0,22.977-66.746m50.71,18.741q.321,3.68.321,7.368a83.748,83.748,0,0,1-3.921,25.345c.233.722.47,1.448.722,2.171a85.114,85.114,0,0,0,4.562-27.516q0-3.616-.3-7.223c-.457-.055-.92-.1-1.384-.146M799.814,909.015a41.9,41.9,0,0,0,3.551,12.663,11.2,11.2,0,0,1,.856,2.754q.758.885,1.529,1.756a12.574,12.574,0,0,0-1.144-5.084,40.455,40.455,0,0,1-3.4-11.963c-.463-.039-.927-.078-1.39-.126m120.923,22.747a83.508,83.508,0,0,1-17.2,28.858c-.888.979-1.792,1.935-2.729,2.871q-2.6,2.6-5.356,4.916c.356.295.716.586,1.082.872q2.693-2.284,5.236-4.825c.959-.949,1.879-1.925,2.774-2.913a84.868,84.868,0,0,0,16.914-27.753q-.375-1.011-.723-2.025m-101.33,8.088c.583.515,1.163,1.017,1.75,1.523a11.18,11.18,0,0,1,2.764.855,41.727,41.727,0,0,0,12.663,3.552c-.049-.46-.091-.924-.129-1.387a40.439,40.439,0,0,1-11.96-3.4,12.447,12.447,0,0,0-5.087-1.144m74.977,29.441a82.206,82.206,0,0,1-7.271,5.294c.622.143,1.235.276,1.857.412q3.334-2.24,6.493-4.825c-.366-.288-.723-.583-1.079-.881"
        />
        <path
          fill="#107bf9"
          transform="translate(-721.644 -650.023)"
          d="M864.044,832.975c-.515.072-1.03.149-1.542.23.314.411.629.826.936,1.241.512-.078,1.021-.149,1.536-.214-.3-.421-.612-.839-.93-1.257M821.93,851.422c-.359.292-.713.59-1.069.888.366.285.726.577,1.082.875.353-.3.706-.59,1.066-.881-.356-.3-.713-.6-1.079-.881m57.469,24.25c.049.46.091.92.13,1.38.463.042.927.091,1.384.146-.039-.463-.081-.927-.13-1.39-.457-.052-.92-.1-1.384-.136m-88.475,48.9c.039.463.081.927.129,1.387.457.055.917.1,1.377.139-.045-.46-.091-.917-.13-1.38-.46-.042-.92-.091-1.377-.146m59,24.014c-.353.3-.713.593-1.069.885.356.3.713.593,1.076.881.36-.295.719-.593,1.073-.894-.363-.285-.723-.577-1.079-.872"
        />
        <path
          fill="#107bf9"
          transform="translate(-763.842 -662.275)"
          d="M888.209,827.506q-.1.768-.214,1.536c.412.308.826.619,1.235.933.081-.515.156-1.024.23-1.542q-.622-.471-1.251-.927M772.982,841.488c-.3.357-.6.713-.894,1.073.288.366.586.726.885,1.079.292-.356.59-.713.888-1.069-.3-.357-.593-.716-.878-1.083m97.146,28c-.288.356-.586.716-.881,1.069q.447.535.875,1.079c.3-.356.593-.713.891-1.072q-.432-.545-.885-1.076m-73.787,30.575c.039.463.084.923.136,1.384.467.049.927.087,1.39.126-.055-.457-.1-.92-.146-1.38-.46-.039-.924-.081-1.38-.13"
        />
        <path
          fill="#107bf9"
          transform="translate(-663.379 -635.007)"
          d="M817.651,839.678c-.249.677-.489,1.351-.719,2.032.25.723.489,1.452.719,2.181.23-.729.473-1.452.723-2.177q-.35-1.021-.723-2.035m.013,55.068c-.23.729-.473,1.452-.723,2.174.233.68.47,1.354.723,2.028.246-.677.489-1.351.719-2.031-.25-.719-.489-1.445-.719-2.171"
        />
        <path
          fill="#107bf9"
          transform="translate(-738.688 -670.345)"
          d="M840.562,823.9q-1.089.374-2.177.719c.726.23,1.455.473,2.177.723.68-.23,1.354-.47,2.031-.719-.677-.253-1.351-.493-2.031-.723m-55.214.01q-1.021.35-2.032.723,1.011.374,2.029.723,1.084-.379,2.171-.723c-.723-.23-1.448-.473-2.168-.723"
        />
        <path
          fill="#3fb1fc"
          transform="translate(-662.873 -774.145)"
          d="M849.645,777.57q-3.329,2.236-6.49,4.825c.366.288.726.58,1.079.881a84.439,84.439,0,0,1,7.268-5.3c-.613-.139-1.241-.279-1.857-.408m-7.563,5.719q-2.692,2.284-5.24,4.825-1.424,1.434-2.764,2.913A84.871,84.871,0,0,0,817.158,818.8c.249.674.492,1.351.722,2.029a83.449,83.449,0,0,1,17.206-28.884c.885-.972,1.789-1.935,2.722-2.871q2.6-2.6,5.356-4.916c-.357-.295-.716-.59-1.083-.872m55.084,23.22a42.162,42.162,0,0,0-9.915,1.179,41.934,41.934,0,0,0-22.98,66.75c.3-.36.593-.716.894-1.073a40.563,40.563,0,0,1,22.406-64.348,40.856,40.856,0,0,1,9.594-1.144c1.209,0,2.414.055,3.623.162-.039-.463-.081-.92-.13-1.38-1.16-.1-2.326-.146-3.493-.146m4.874.282c.045.46.087.927.123,1.39a40.383,40.383,0,0,1,11.969,3.4,12.442,12.442,0,0,0,5.087,1.141c-.573-.509-1.16-1.018-1.75-1.52a11.256,11.256,0,0,1-2.767-.862,41.951,41.951,0,0,0-12.663-3.548m30.834,19.581a12.118,12.118,0,0,0,1.14,5.091,40.445,40.445,0,0,1,3.4,11.963c.46.039.927.081,1.387.123a41.747,41.747,0,0,0-3.545-12.656,10.715,10.715,0,0,1-.862-2.774q-.758-.88-1.52-1.747m4.685,18.434c.107,1.209.162,2.421.162,3.629a40.567,40.567,0,0,1-65.492,32q-.534.452-1.073.894a41.772,41.772,0,0,0,25.99,9.031h.016a41.912,41.912,0,0,0,41.922-41.926q0-1.75-.146-3.5c-.457-.049-.92-.091-1.38-.13m-71.519,29.639-.885,1.069q1.006,1.186,2.113,2.31l.233.25.042.042-.032-.032q1.244,1.244,2.566,2.362c.356-.292.716-.586,1.069-.885q-1.371-1.147-2.66-2.437l-.233-.24-.007-.013q-1.162-1.176-2.207-2.427m-48.154,1.6q-.35,1.016-.723,2.029a84.653,84.653,0,0,0,10.942,20.443c.515-.065,1.027-.139,1.539-.214a83.244,83.244,0,0,1-11.759-22.257m149.729,18.039a83.543,83.543,0,0,1-5.3,7.274c.3.353.6.713.881,1.079q2.6-3.164,4.831-6.5c-.133-.619-.269-1.235-.408-1.854m-137.037,5.457c-.512.081-1.027.159-1.542.23a85.959,85.959,0,0,0,7.563,8.719l.23.243.013.01a85.481,85.481,0,0,0,8.989,7.825c.071-.515.146-1.03.227-1.542a84.4,84.4,0,0,1-8.234-7.232l-.23-.246-.02-.01a85.28,85.28,0,0,1-7-8m130.849,2.887q-2.318,2.756-4.912,5.353a83.613,83.613,0,0,1-31.751,19.934c.68.23,1.358.473,2.031.719a85.021,85.021,0,0,0,30.685-19.691q2.542-2.542,4.822-5.236c-.285-.363-.58-.726-.875-1.079M847.3,915.962c-.081.512-.149,1.024-.22,1.536a84.918,84.918,0,0,0,20.439,10.939q1.016-.374,2.035-.723A83.25,83.25,0,0,1,847.3,915.962m24.425,12.475q-1.089.345-2.177.723a85.565,85.565,0,0,0,19.1,4.147c-.052-.457-.1-.92-.139-1.384a84.032,84.032,0,0,1-16.788-3.486m50.872,0a84.217,84.217,0,0,1-25.433,3.93c-2.424,0-4.854-.107-7.274-.314.042.463.091.924.149,1.38q3.558.3,7.125.3a85.458,85.458,0,0,0,27.6-4.572c-.716-.253-1.442-.493-2.171-.723"
        />
        <path
          fill="#0455f6"
          transform="translate(-655.303 -770.807)"
          d="M835.585,779.06c-.356.295-.716.593-1.073.894.366.282.726.577,1.083.872q.535-.447,1.069-.885c-.353-.3-.713-.593-1.079-.881m57.5,24.26c.049.46.091.917.13,1.38.463.039.917.087,1.374.146-.036-.463-.078-.93-.123-1.39q-.69-.078-1.38-.136m-29.512,72.906c-.353.3-.713.593-1.069.885q.53.452,1.079.885.54-.442,1.073-.894-.549-.428-1.082-.875m-41.5,18.745c-.512.075-1.024.149-1.539.214.308.421.616.839.93,1.254.515-.071,1.031-.149,1.542-.23-.317-.411-.625-.823-.933-1.238"
        />
        <path
          fill="#0455f6"
          transform="translate(-643.051 -728.614)"
          d="M917.592,797.894q.083.69.146,1.38c.46.042.92.084,1.38.133-.039-.463-.084-.927-.139-1.387-.463-.045-.927-.087-1.387-.126m-72.251,29.943c-.3.353-.6.713-.891,1.073.288.363.583.719.885,1.076q.437-.539.885-1.069c-.3-.357-.59-.716-.878-1.079m97.146,28c-.288.356-.583.713-.881,1.066.295.356.59.716.872,1.082.3-.356.6-.716.891-1.073-.285-.363-.577-.723-.882-1.075M826.233,869.5c-.078.515-.156,1.03-.227,1.545.418.311.83.622,1.251.927.068-.515.139-1.027.217-1.539q-.622-.457-1.241-.933m42.457,16.895c.039.463.084.927.139,1.384.457.049.924.091,1.387.129-.062-.457-.107-.92-.149-1.384-.457-.039-.917-.081-1.377-.13"
        />
        <path
          fill="#0455f6"
          transform="translate(-628.055 -670.338)"
          d="M834.732,823.907q-1.016.35-2.032.723c.677.249,1.351.489,2.028.723.726-.253,1.448-.493,2.177-.723-.729-.23-1.452-.47-2.174-.723m55.214,0c-.716.249-1.442.489-2.168.719q1.094.345,2.171.723,1.021-.35,2.025-.719-1.006-.374-2.028-.722"
        />
        <path
          fill="#3fb1fc"
          transform="translate(-666.531 -744.231)"
          d="M820.094,790.923a85.471,85.471,0,0,0-4.569,27.594c0,2.375.1,4.753.295,7.122.463.055.92.1,1.384.143-.211-2.414-.311-4.841-.311-7.265a84.119,84.119,0,0,1,3.924-25.423c-.23-.726-.473-1.452-.723-2.171m-4.147,36.1a85.164,85.164,0,0,0,4.154,19.108c.249-.722.492-1.445.719-2.171a84.219,84.219,0,0,1-3.487-16.8c-.463-.036-.924-.081-1.387-.136"
        />
        <path
          fill="#0455f6"
          transform="translate(-666.325 -720.228)"
          d="M815.617,801.637c.036.463.078.927.126,1.387.46.055.92.1,1.387.139-.049-.46-.094-.92-.13-1.38-.463-.042-.924-.091-1.384-.146"
        />
        <path
          fill="#0455f6"
          transform="translate(-663.37 -745.638)"
          d="M817.659,790.295c-.25.674-.492,1.354-.723,2.035.25.719.489,1.445.723,2.171q.345-1.089.719-2.174c-.23-.68-.473-1.358-.719-2.032m0,55.075q-.345,1.089-.722,2.171c.23.68.473,1.358.722,2.032q.374-1.011.723-2.032c-.25-.719-.492-1.445-.723-2.171"
        />
      </g>
    </g>
  </g>
</svg>
